<?xml version="1.0" encoding="utf-8"?>
<!-- Generator: Adobe Illustrator 16.0.0, SVG Export Plug-In . SVG Version: 6.00 Build 0)  -->
<!DOCTYPE svg PUBLIC "-//W3C//DTD SVG 1.1//EN" "http://www.w3.org/Graphics/SVG/1.1/DTD/svg11.dtd">
<svg version="1.1" id="Layer_1" xmlns="http://www.w3.org/2000/svg" xmlns:xlink="http://www.w3.org/1999/xlink" x="0px" y="0px"
	 width="1000px" height="1000px" viewBox="0 0 1000 1000" enable-background="new 0 0 1000 1000" xml:space="preserve">
<g>
	<g>
		<g>
			<path fill="#010101" d="M931.979,940.777c-1.596-4.557-17.295-12.674-23.186-17.158c-5.9-4.473-8.862-8.861-8.862-8.861
				s-3.339-5.199-6.92-8.811c-3.581-3.623-27.585-14.187-34.536-22.02c-6.941-7.834-26.566-21.348-37.277-38.475
				c-5.617-8.946-14.102-21.285-22.85-32.279c2.385,0.525,3.99,1.156,3.99,1.156l-1.196-7.855c0,0,10.417-10.689,11.025-14.848
				c0,0,3.507-8.316,7.204-8.273c3.686,0.041,7.832-0.967,8.578-4.684c0.767-3.717-3.213-9.766-3.213-9.766s2.951-3.15,0.693-7.971
				c-2.258-4.819-9.084-6.688-9.084-6.688s-4.305-6.679,0.189-10.112c4.494-3.423,10.018-6.824,6.195-11.203
				c-3.801-4.39-10.375-6.207-11.677-9.557c-1.292-3.338-6.783-13.01-8.495-12.547c-1.711,0.461-4.011-1.355-7.57-4.043
				c-3.57-2.678-9.041-4.085-10.627-3.959c-1.574,0.137-6.993-7.361-15.414-6.646c0,0-1.765-1.975-6.07-2.668
				c-4.305-0.693-10.721-1.218-18.438,1.564c-7.729,2.783-14.28,0.684-14.28,0.684s-1.072,0.188-2.594,0.756
				c0.619-6.574,0.272-11.215,0.272-11.215c-2.174-0.451-2.174-7.844-12.191-19.615c-10.017-11.75-14.806-20.455-31.785-52.691
				c-16.989-32.227-60.104-61.838-97.991-78.818c-37.887-16.989-54.445-52.702-54.445-52.702s0-0.011-0.126-2.636
				c1.176-0.163,1.964-0.378,2.31-0.845c1.869-2.483-0.272-15.394-3.843-32.074c-0.032-0.483-0.053-0.956-0.073-1.459
				c-0.389-8.327-2.32-15.404-5.156-21.442c-6.721-24.934-32.3-30.824-32.3-30.824s-18.292-13.499-32.662-21.768
				c-14.375-8.28-29.617-24.829-29.617-24.829s-3.05-2.305-5.938-4.646c-0.341-0.347-0.677-0.677-1.029-1.014
				c-0.746-0.704-1.465-1.234-2.179-1.696c-0.84-0.756-1.486-1.396-1.743-1.78c-3.701-5.665-10.884,3.912-10.884,3.912
				s-18.292-17.42-33.539-31.791c-15.242-14.365-20.896-24.388-29.612-59.659c-8.71-35.282-21.773-57.926-41.372-72.291
				c-19.594-14.375-34.405-34.411-46.161-50.088c-11.761-15.677-15.242-32.231-22.214-57.921
				c-6.967-25.695-35.277-8.716-39.629-6.101s-10.018,1.743-10.018,1.743c-8.269-6.096-19.599-6.531-35.712-2.615
				c-10.38,2.525-16.16,2.31-18.969,1.843c0.063-0.01,0.126-0.021,0.189-0.026c0,0-0.708-0.179-1.958-0.399
				c-0.294-0.1-0.446-0.173-0.446-0.173c-0.147,0.01-0.289,0.026-0.431,0.037c-9.377-1.455-39.85-3.423-58.499,27.543
				c0,0-8.039,18.707,26.451,25.322c5.943,1.139,11.855,2.299,17.646,3.549c5.539,1.339,11.272,2.709,16.953,4.101
				c19.778,5.434,36.841,12.995,46.938,26.178c13.866,18.092,53.579,82.802,69.225,105.987c3.392,5.907,5.933,10.364,6.988,12.469
				c3.922,7.844,8.71,24.382,10.454,43.546c0.609,6.731,3.712,12.958,7.45,18.224c3.428,6.216,8.285,13.068,15.194,20.534
				c0,0,9.146,10.889,12.632,19.164c3.481,8.274,42.674,64.458,51.826,73.599c0,0,0.184,0.031,0.494,0.073
				c-0.005,1.108,0.047,2.342,0.157,3.696c-0.352-1.281-0.525-2.378-0.593-3.045c1.407,19.925,7.429,28.11,14.312,35.423
				c6.967,7.408,49.211,39.193,55.742,40.937s25.265,22.649,25.265,22.649s6.095,8.716,6.095,7.403c0-0.063,0.032-0.21,0.074-0.399
				c5.922,15.227,28.992,42.318,43.037,54.404c0.672,0.577,1.312,1.165,1.953,1.753c7.361,10.963,18.67,29.36,46.392,64.012
				c3.35,4.19,6.878,8.085,10.511,11.75c1.533,1.849,3.098,3.728,4.726,5.66c38.642,45.835,85.989,50.318,97.677,50.718
				c15.498,23.006,29.023,39.566,31.134,41.635c4.337,4.231,19.982,14.312,32.604,38.705c12.632,24.393,47.861,48.964,67.959,59.381
				c20.119,10.416,31.334,24.424,31.334,24.424c12.916,21.086,26.42,24.036,33.812,24.74c1.28,0.42,2.582,0.787,3.906,1.092
				c1.68,0.377,3.223,0.734,4.703,1.05c3.318,1.68,7.781,4.189,13.924,7.172c8.254,4.001,22.619,5.177,23.868,5.282
				c0.745,0.188,1.659,0.398,2.825,0.682c10.248,2.5,23.657,3.528,23.657,3.528s-0.011-0.011-0.263-0.556
				C930.193,944.957,932.924,943.445,931.979,940.777z M436.451,354.935c1.738,1.675,3.728,3.586,5.823,5.586
				C440.063,358.579,438.147,356.72,436.451,354.935z M531.424,472.331c0,0-0.126,0.079-0.42,0.173
				c-0.063-1.281-0.127-2.746-0.199-4.41C531.256,470.735,531.424,472.331,531.424,472.331z"/>
			<path fill="#010101" d="M218.69,54.603c7.056,0,13.688,3.287,16.596,14.019c6.972,25.689,10.453,42.244,22.214,57.921
				c11.755,15.677,26.566,35.712,46.161,50.088c19.599,14.365,32.662,37.009,41.372,72.291c8.715,35.271,14.37,45.294,29.612,59.659
				c15.247,14.37,33.539,31.791,33.539,31.791s4.279-5.707,7.933-5.702c1.082,0,2.105,0.499,2.951,1.791
				c0.257,0.383,0.903,1.024,1.743,1.78c0.714,0.462,1.434,0.992,2.179,1.696c0.352,0.336,0.688,0.667,1.029,1.014
				c2.888,2.341,5.938,4.646,5.938,4.646s15.242,16.549,29.617,24.829c14.37,8.269,32.662,21.768,32.662,21.768
				s25.579,5.891,32.3,30.824c2.836,6.038,4.768,13.115,5.156,21.442c0.021,0.504,0.041,0.977,0.073,1.459
				c3.57,16.68,5.712,29.591,3.843,32.074c-0.346,0.467-1.134,0.682-2.31,0.845c0.126,2.625,0.126,2.636,0.126,2.636
				s16.559,35.712,54.445,52.702c37.887,16.98,81.002,46.592,97.991,78.818c16.979,32.236,21.769,40.941,31.785,52.691
				c10.018,11.771,10.018,19.164,12.191,19.615c0,0,0.347,4.641-0.272,11.215c1.521-0.567,2.594-0.756,2.594-0.756
				s2.373,0.756,5.943,0.756c2.373,0,5.25-0.336,8.337-1.439c4.483-1.617,8.526-2.121,11.971-2.121c2.488,0,4.662,0.263,6.468,0.557
				c4.306,0.693,6.07,2.668,6.07,2.668c0.377-0.021,0.766-0.043,1.133-0.043c7.708,0,12.686,6.689,14.239,6.689
				c0.021,0,0.032,0,0.042,0c0.062-0.011,0.146-0.011,0.221-0.011c1.816,0,6.982,1.407,10.406,3.97
				c3.191,2.404,5.355,4.115,7.014,4.115c0.189,0,0.379-0.021,0.557-0.072c0.043-0.012,0.074-0.012,0.127-0.012
				c1.837,0,7.108,9.305,8.368,12.559c1.302,3.35,7.876,5.167,11.677,9.557c3.822,4.379-1.701,7.78-6.195,11.203
				c-4.494,3.434-0.189,10.112-0.189,10.112s6.826,1.869,9.084,6.688c2.258,4.82-0.693,7.971-0.693,7.971s3.979,6.049,3.213,9.766
				c-0.734,3.654-4.757,4.684-8.39,4.684c-0.063,0-0.126,0-0.188,0c-0.021,0-0.021,0-0.032,0c-3.686,0-7.172,8.273-7.172,8.273
				c-0.608,4.158-11.025,14.848-11.025,14.848l1.196,7.855c0,0-1.605-0.631-3.99-1.156c8.748,10.994,17.232,23.333,22.85,32.279
				c10.711,17.127,30.336,30.641,37.277,38.475c6.951,7.833,30.955,18.396,34.536,22.02c3.581,3.611,6.92,8.811,6.92,8.811
				s2.962,4.389,8.862,8.861c5.891,4.484,21.59,12.602,23.186,17.158c0.945,2.668-1.785,4.18-5.104,4.537
				c0.252,0.545,0.263,0.556,0.263,0.556s-13.409-1.028-23.657-3.528c-1.166-0.283-2.08-0.493-2.825-0.682
				c-1.249-0.105-15.614-1.281-23.868-5.282c-6.143-2.982-10.605-5.492-13.924-7.172c-1.48-0.315-3.023-0.673-4.703-1.05
				c-1.324-0.305-2.626-0.672-3.906-1.092c-7.393-0.704-20.896-3.654-33.812-24.74c0,0-11.215-14.008-31.334-24.424
				c-20.098-10.417-55.327-34.988-67.959-59.381c-12.622-24.393-28.268-34.474-32.604-38.705
				c-2.11-2.068-15.636-18.629-31.134-41.635c-11.688-0.399-59.035-4.883-97.677-50.718c-1.628-1.933-3.192-3.812-4.726-5.66
				c-3.633-3.665-7.161-7.56-10.511-11.75c-27.722-34.651-39.03-53.049-46.392-64.012c-0.641-0.588-1.281-1.176-1.953-1.753
				c-14.044-12.086-37.114-39.178-43.037-54.404c-0.042,0.189-0.074,0.336-0.074,0.399c0,0.095-0.031,0.137-0.084,0.137
				c-0.74,0-6.011-7.54-6.011-7.54s-18.733-20.906-25.265-22.649s-48.775-33.528-55.742-40.937
				c-6.883-7.313-12.905-15.499-14.312-35.423c0.068,0.667,0.242,1.764,0.593,3.045c-0.11-1.354-0.163-2.588-0.157-3.696
				c-0.31-0.042-0.494-0.073-0.494-0.073c-9.151-9.141-48.345-65.324-51.826-73.599c-3.486-8.274-12.632-19.164-12.632-19.164
				c-6.91-7.466-11.766-14.317-15.194-20.534c-3.738-5.266-6.841-11.493-7.45-18.224c-1.743-19.164-6.532-35.702-10.454-43.546
				c-1.055-2.105-3.596-6.562-6.988-12.469c-15.646-23.185-55.359-87.895-69.225-105.987c-10.096-13.184-27.16-20.744-46.938-26.178
				c-5.681-1.391-11.414-2.762-16.953-4.101c-5.792-1.25-11.703-2.41-17.646-3.549c-34.489-6.616-26.451-25.322-26.451-25.322
				c14.464-24.015,36.038-28.22,49.368-28.22c3.859,0,7.025,0.352,9.13,0.677c0.142-0.011,0.284-0.026,0.431-0.037
				c0,0,0.152,0.073,0.446,0.173c1.25,0.221,1.958,0.399,1.958,0.399c-0.063,0.005-0.126,0.016-0.189,0.026
				c0.966,0.163,2.284,0.289,4.017,0.289c3.308,0,8.143-0.473,14.953-2.132c6.815-1.659,12.779-2.536,18.014-2.536
				c7.135,0,12.926,1.633,17.699,5.15c0,0,0.909,0.142,2.273,0.142c2.048,0,5.135-0.315,7.744-1.885
				C198.193,60.998,208.852,54.603,218.69,54.603 M442.274,360.521c-2.095-2-4.085-3.911-5.823-5.586
				C438.147,356.72,440.063,358.579,442.274,360.521 M531.004,472.504c0.294-0.094,0.42-0.173,0.42-0.173s-0.168-1.596-0.619-4.237
				C530.877,469.759,530.94,471.224,531.004,472.504 M218.69,49.378c-7.393,0-16.287,2.993-25.727,8.663
				c-1.218,0.73-3.014,1.134-5.051,1.134c-0.157,0-0.304,0-0.441-0.005c-5.376-3.554-11.787-5.282-19.531-5.282
				c-5.523,0-11.818,0.877-19.248,2.683c-5.339,1.297-10.085,1.985-13.719,1.985c-0.945,0-1.732-0.047-2.378-0.116l-0.173-0.042
				c0,0-0.625-0.163-1.743-0.373l-1.071-0.515l-1.15,0.158c-2.195-0.315-5.418-0.646-9.277-0.646
				c-13.194,0-37.729,3.996-53.847,30.751l-0.184,0.31l-0.142,0.325c-0.336,0.788-3.182,7.923,1.061,15.924
				c4.311,8.122,14.134,13.703,29.208,16.596c5.906,1.129,11.776,2.284,17.531,3.523l5.129,1.239l11.682,2.83
				c21.936,6.027,35.975,13.756,44.034,24.277c8.438,11.01,26.971,40.144,43.32,65.849c10.138,15.935,19.715,30.982,25.721,39.886
				c2.819,4.936,5.618,9.829,6.647,11.887c3.607,7.214,8.253,23.337,9.923,41.677c0.609,6.731,3.371,13.635,8.222,20.534
				c3.917,7.046,9.23,14.213,15.788,21.301l0,0c-0.005,0,8.532,10.238,11.656,17.641c3.77,8.962,40.517,61.366,51.568,73.798
				c1.707,21.069,8.652,30.084,15.635,37.503c6.321,6.72,49.794,40.17,58.2,42.417c3.145,0.966,14.128,11.52,22.513,20.844
				c3.066,4.379,4.925,6.805,6.442,8.105c7.723,16.833,30.299,42.686,43.457,54.006c0.467,0.398,0.919,0.818,1.365,1.217
				c0.961,1.439,1.99,3.004,3.113,4.705c7.697,11.676,19.332,29.317,43.189,59.139c3.266,4.096,6.826,8.064,10.889,12.17
				c1.219,1.513,2.793,3.393,4.442,5.346c37.319,44.291,82.22,51.39,98.8,52.439c14.91,21.926,27.837,37.844,30.347,40.291
				c0.829,0.809,2.048,1.826,3.55,3.076c6.331,5.281,18.134,15.1,28.067,34.295c13.104,25.307,49.163,50.718,70.206,61.617
				c17.558,9.094,27.984,21.064,29.465,22.828c10.165,16.455,22.271,25.244,37.004,26.84c1.261,0.398,2.541,0.746,3.834,1.039
				c1.428,0.326,2.781,0.641,4.084,0.914c0.987,0.515,2.079,1.092,3.276,1.732c2.762,1.46,6.091,3.225,10.122,5.177
				c8.4,4.074,21.768,5.46,25.328,5.765l1.176,0.283l1.26,0.295c10.521,2.583,23.91,3.623,24.477,3.664l8.916,0.684l-1.66-3.55
				c0.903-0.651,1.66-1.438,2.227-2.331c1.281-2.037,1.533-4.473,0.693-6.847c-1.575-4.474-7.623-8.505-17.389-14.616
				c-3.004-1.88-5.859-3.654-7.561-4.957c-5.062-3.843-7.697-7.612-7.729-7.654c-0.063-0.095-3.592-5.576-7.519-9.545
				c-1.838-1.869-5.565-3.949-12.538-7.76c-7.665-4.201-18.166-9.944-21.789-14.039c-2.457-2.773-6.143-6.007-10.405-9.745
				c-8.694-7.603-19.511-17.074-26.356-28.036c-5.125-8.17-11.404-17.264-17.578-25.475l-0.546-3.665l-0.819-5.313
				c4.043-4.315,9.262-10.543,10.469-14.953c0.852-1.879,2.153-3.938,2.951-4.715c7.141-0.209,11.887-3.485,12.969-8.861
				c0.766-3.76-0.872-8.002-2.342-10.869c0.977-2.635,1.281-6.174-0.567-10.111c-2.269-4.841-7.141-7.477-10.081-8.695
				c-0.283-0.756-0.44-1.49-0.356-1.816l1.196-0.829c3.634-2.72,7.761-5.796,8.275-10.585c0.188-1.806-0.105-4.515-2.521-7.309
				c-2.31-2.646-5.219-4.451-7.561-5.9c-1.165-0.735-2.919-1.828-3.317-2.342h0.01c0.031,0-6.164-15.656-13.125-15.656h-0.41
				c-0.83-0.473-2.373-1.639-3.654-2.604l-0.482-0.368c-3.844-2.887-9.22-4.588-12.402-4.945c-0.178-0.146-0.367-0.305-0.576-0.473
				c-2.71-2.131-7.656-6.059-14.491-6.279c-1.491-0.977-3.78-2.047-6.973-2.572c-2.604-0.42-4.914-0.609-7.287-0.609
				c-4.651,0-9.272,0.819-13.745,2.426c-2.09,0.746-4.295,1.123-6.562,1.123c-1.197,0-2.217-0.104-2.973-0.22
				c0.095-3.675-0.073-6.017-0.073-6.164l-0.305-3.927l-2.026-0.42c-0.105-0.242-0.21-0.504-0.336-0.788
				c-1.533-3.602-4.096-9.64-10.764-17.462c-9.766-11.457-14.521-20.183-31.134-51.747c-18.386-34.862-63.97-64.788-100.49-81.148
				c-30.085-13.493-46.266-39.813-50.612-47.793c0.146-0.158,0.283-0.331,0.42-0.509c2.541-3.371,2.771-9.629-2.857-35.865
				l-0.041-0.998c-0.379-8.269-2.227-16.003-5.461-23.033c-6.836-24.492-29.527-32.289-34.919-33.817
				c-3.754-2.741-19.442-14.071-32.352-21.5c-13.493-7.771-28.231-23.679-28.378-23.836l-0.315-0.346l-0.378-0.284
				c-0.021-0.016-2.856-2.163-5.607-4.384l-0.903-0.888c-0.893-0.84-1.738-1.491-2.573-2.058c-0.32-0.294-0.588-0.546-0.761-0.745
				c-1.57-2.431-4.174-3.912-7.146-3.912c-3.092,0-5.933,1.685-8.122,3.539c-6.159-5.854-18.754-17.825-29.764-28.199
				c-14.149-13.336-19.558-22.45-28.126-57.113c-8.941-36.211-22.718-60.126-43.357-75.252
				c-18.518-13.588-32.788-32.625-44.254-47.925l-0.814-1.082c-9.855-13.142-13.556-26.997-19.153-47.972l-2.195-8.186
				C237.203,55.726,229.521,49.378,218.69,49.378L218.69,49.378z"/>
		</g>
		<g>
			<path fill="#010101" d="M351.627,443.87c-0.016-0.252-0.047-0.478-0.058-0.725C351.57,443.145,351.581,443.418,351.627,443.87z"
				/>
			<path fill="#231F20" d="M351.57,443.145L351.57,443.145L351.57,443.145 M351.57,443.145c0.011,0.247,0.042,0.472,0.058,0.725
				C351.581,443.423,351.57,443.15,351.57,443.145 M356.789,442.909l-10.443,0.425c0,0.01,0.016,0.415,0.084,1.082l10.412-0.872
				L356.789,442.909L356.789,442.909z"/>
		</g>
	</g>
	<path fill="#FFFFFF" d="M620.27,668.959c0,0,27.291,68.254,108.439,146.988c9.545,9.25,3.359,13.85,4.451,16.233
		c1.093,2.373,19.931,21.505,45.615,34.651c25.663,13.146,39.23,27.039,44.963,36.396c5.713,9.356,18.377,21.274,34.422,24.929
		c16.055,3.654,22.66,4.451,29.517,8.988c6.867,4.516,11.729,4.684,14.921,2.258c3.213-2.426,1.533,1.207,1.533,1.207
		s11.635,1.375,16.045,3.654c4.41,2.3,13.409,1.051,11.803-3.486c-1.596-4.557-17.295-12.674-23.186-17.158
		c-5.9-4.473-8.862-8.861-8.862-8.861s-3.339-5.199-6.92-8.811c-3.581-3.623-27.585-14.187-34.536-22.02
		c-6.941-7.834-26.566-21.348-37.277-38.475c-10.731-17.115-31.963-46.664-45.51-55.307c-13.545-8.642-17.305-12.664-18.816-13.881
		c-1.522-1.229-19.09-17.589-23.731-24.582c-4.642-6.973-22.744-30.768-31.701-36.721c0,0-25.989-73.367-51.673-80.256
		c-25.686-6.92-38.349-1.113-40.942,0.566C606.24,636.934,614.21,657.85,620.27,668.959z"/>
	<path fill="#FFFFFF" d="M658.816,733.622c0,0-70.773-9.136-114.319-63.57c-43.551-54.435-46.602-68.821-57.491-77.095
		c-10.884-8.275-41.373-66.406-47.032-69.021c-5.66-2.613-82.188-53.274-84.923-62.719c-5.88-20.245-1.302-26.776-1.302-26.776
		s-40.07-42.68-50.954-61.838c-10.889-19.169-14.811-26.566-14.811-26.566s-21.773-15.247-23.516-34.411
		s-6.532-35.702-10.454-43.546c-3.917-7.844-28.304-47.903-40.937-75.341c-12.632-27.438-27.874-53.128-54.871-61.843
		c-27.007-8.71-71.425-16.113-81.878-23.511c-10.448-7.414-9.86-41.005,52.414-44.491c0,0,5.077,2.677,21.185-1.245
		c16.113-3.917,27.443-3.481,35.712,2.615c0,0,5.665,0.872,10.018-1.743s32.662-19.594,39.629,6.101
		c6.972,25.689,10.453,42.244,22.214,57.921c11.755,15.677,26.566,35.712,46.161,50.088c19.599,14.365,32.662,37.009,41.372,72.291
		c8.715,35.271,14.37,45.294,29.612,59.659c15.247,14.37,33.539,31.791,33.539,31.791s6.531-8.27,14.806-0.436
		c8.274,7.839,12.191,16.554,28.74,27.869c16.554,11.33,27.659,20.041,35.933,23.521c8.269,3.486,40.286,16.118,42.029,53.133
		c1.732,37.015,1.732,37.015,1.732,37.015s16.559,35.712,54.445,52.702c37.887,16.98,81.002,46.592,97.991,78.818
		c16.979,32.236,21.769,40.941,31.785,52.691c10.018,11.771,10.018,19.164,12.191,19.615c0,0,2.174,28.729-13.935,44.417
		C697.795,745.383,669.695,737.99,658.816,733.622z"/>
	<path fill="#010101" d="M451.729,545.053c0,0,11.325-18.732,20.471-21.337c0,0,33.539,23.521,47.903,41.372
		c0,0-11.318-10.447-23.951-12.621c0,0-2.174,44.857,21.778,56.598c0,0,9.146-0.42,13.493,5.67
		c4.368,6.102,14.386,10.018,14.386,10.018l3.045-7.402c0,0-0.44,9.146,3.046,14.375c3.486,5.229,2.184,2.184,2.184,2.184
		l1.303-12.201c0,0,2.604,7.834,7.392,7.402c4.799-0.43,10.899-5.229,10.899-5.229s-10.018-21.768-12.201-31.785
		c0,0,33.098,81.001,82.314,111.494c0,0,2.173-15.257,4.357-23.101c0,0,0.482,34.043,11.971,57.712c0,0-60.988,1.049-105.405-51.664
		c-50.114-59.443-54.314-73.535-63.271-81.253C475.766,591.791,453.473,558.557,451.729,545.053z"/>
	<path fill="#010101" d="M351.57,443.145c0,0,0.431,14.37,14.37,13.934c13.934-0.431,50.518-30.478,53.127-51.82
		c0,0-3.481,30.924-27.868,45.725c0,0,29.181,1.749,43.551-28.304c0,0,0,28.746-31.36,33.969c0,0,29.617,0,33.539,2.615
		c0,0-16.119-3.922-34.841,7.403c0,0,0.43,6.531,3.045,5.665c2.615-0.876,16.118-3.922,16.99-2.62
		c0.867,1.312-8.279,7.844-8.279,7.844l15.241-3.922l-6.526,9.151l5.219,5.654c0,0,10.895-1.307,12.196,0.877
		c1.308,2.173,10.889-6.531,17.42-7.403c6.531-0.877,16.549-6.542,16.549-7.844c0-1.302-0.872,6.967-13.062,10.018
		c-12.196,3.045-18.728,11.325-18.728,11.325l5.66,9.582l11.761-7.408c0,0-3.922,9.141-3.486,13.067
		c0.441,3.928,1.307,9.577,1.307,9.577s49.646-52.256,60.536-49.206c10.889,3.045,8.075-0.032,8.075-0.032
		s-2.5-46.764-35.513-62.247c0,0,14.806,4.357,21.337,12.196c0,0-13.499-27.002-50.514-16.985c0,0-16.99,9.146-17.425,10.448
		c-0.436,1.312,13.939-19.158,20.035-17.851c6.096,1.302,34.841-1.743,48.775,21.337c0,0-9.582-19.164-16.549-20.035
		c-6.962-0.866-13.063-3.917-13.063-3.917l-3.917-5.224c0,0-14.375-7.408-23.521-15.678c-9.146-8.274-25.259-23.957-25.259-23.957
		l-7.403,2.179c0,0,0.651,4.793-1.308,45.95c0,0-0.436-38.983-13.499-56.839c0,0,9.157-10.443,12.858-4.783
		c1.192,1.817,8.915,10.007,8.915,10.007s15.242,16.549,29.617,24.829c14.37,8.269,32.662,21.768,32.662,21.768
		s29.737,7.802,35.839,33.927c6.101,26.131,8.148,48.387,5.533,51.873c-2.614,3.481-29.181-6.537-70.989,44.863
		c0,0-9.577,26.126-9.577,27.428c0,1.312-6.095-7.403-6.095-7.403s-18.733-20.906-25.265-22.649s-48.775-33.528-55.742-40.937
		C358.968,471.896,352.877,463.621,351.57,443.145z"/>
	<path fill="#010101" d="M379.874,440.536c0,0-42.679-37.015-55.748-65.755c-13.057-28.745-23.075-50.523-31.785-58.362
		c0,0,6.531,11.325,5.66,19.594c0,0-23.957-2.173-24.829-21.768c-0.866-19.61-4.352-29.187-4.352-29.187s11.33,1.743,15.247,9.151
		c0,0,0-8.715-8.274-16.985c-8.28-8.274-14.37-20.471-14.37-20.471s10.012,10.895,22.645,13.934c0,0-22.645-6.531-37.02-33.528
		c-14.375-27.007-17.856-27.874-24.388-43.551c-6.537-15.677-39.629-59.665-57.055-66.631
		c-17.416-6.967-34.405-12.197-41.367-16.985c-6.973-4.793-24.666-10.905-22.209-27.879c0,0-0.126-14.911,29.118-18.649
		c0,0-39.093-9.928-61.333,27.007c0,0-8.039,18.707,26.451,25.322c33.429,6.405,65.86,13.356,81.537,33.828
		c15.683,20.465,64.458,100.601,74.034,112.787c9.587,12.202,13.068,21.348,12.632,30.488c-0.431,9.151-3.917,28.745,22.645,57.485
		c0,0,9.146,10.889,12.632,19.164c3.481,8.274,42.674,64.458,51.826,73.599c0,0,9.141,1.312,11.32,1.312
		c2.179,0-3.922-10.889-3.922-10.889s6.536,10.889,11.76,10.889C375.958,444.458,379.874,440.536,379.874,440.536z"/>
	<path fill="#010101" d="M184.333,65.135c-1.328-0.357,18.728,12.627,20.471,27.438c1.743,14.806,4.358,20.907,15.242,33.969
		c10.889,13.063,68.81,70.553,75.342,86.231c0,0-13.499-31.796-30.047-45.294c-16.554-13.499-42.685-40.065-48.781-59.229
		c-6.09-19.164-12.191-27.874-12.191-27.874s10.018-7.398,20.03,4.357c8.721,10.233,21.342,43.982,20.907,42.68
		c-0.436-1.312-10.018-37.02-19.594-47.909c-9.088-10.317-21.778-5.66-24.829-2.174C200.881,77.331,198.708,69.057,184.333,65.135z"
		/>
	<path fill="#010101" d="M277.966,186.207c0,0,12.632-13.504,22.214-5.229c0,0-6.531-10.889-24.388-3.045
		c0,0-0.441,3.917,1.738,6.531"/>
	<path fill="#010101" d="M612.709,653.135c0,0,10.973,27.061,29.832,39.977c0,0,6.721,14.648,11.299,23.562
		c4.567,8.926,14.133,14.113,14.133,14.113s27.732,4.063,39.451,14.974c0,0-16.623-10.112-31.449-3.78
		c0,0-3.455,10.207,13.01,18.943c16.455,8.736,24.32,18.544,28.174,25.895c3.843,7.34,8.169,17.809,13.388,18.764
		c5.229,0.956,31.313,7.677,45.331,25.686c0,0-18.523-17.379-39.85-14.775c0,0,0.473,3.13,13.85,11.373
		c13.357,8.242,22.104,14.773,27.103,22.545c5.009,7.77,10.616,14.764,18.597,20.686c7.99,5.922,25.769,21.715,29.832,28.478
		c4.064,6.772,13.682,16.255,24.109,19.132c10.428,2.888,26.115,5.744,31.071,9.24c4.935,3.477,13.724,9.031,15.31,8.296
		c1.575-0.714-0.609-5.471-0.609-5.471s7.771,6.489,14.984,6.542c7.215,0.042,15.404,5.396,16.14,6.973
		c0.725,1.585,0.725,1.585,0.725,1.585s-13.409-1.028-23.657-3.528c-10.238-2.488-2.709-0.661-2.709-0.661
		s-15.353-1.113-23.984-5.303c-8.631-4.19-14.333-6.101-17.798-7.393c-3.466-1.281-21.368,1.396-38.548-26.661
		c0,0-11.215-14.008-31.334-24.424c-20.098-10.417-55.327-34.988-67.959-59.381c-12.622-24.393-28.268-34.474-32.604-38.705
		C684.207,775.572,631.641,710.08,612.709,653.135z"/>
	<path fill="#010101" d="M765.156,796.416c0,0,15.992,5.607,26.251,24.844c10.259,19.258,30.829,45.279,39.136,52.965
		c8.327,7.687,11.697,11.887,12.633,12.895c0.934,1.008,16.758,11.467,25.422,14.701c8.662,3.213,21.452,11.236,21.452,11.236
		s-18.975-15.248-27.669-17.494c-8.695-2.248-18.965-9.997-26.966-21.17c-8.001-11.193-17.21-15.582-31.061-38.463
		c-13.84-22.881-22.198-34.852-40.899-41.131"/>
	<path fill="#010101" d="M317.165,257.416c0,0,2.609,36.573,18.943,47.027c16.333,10.448,70.548,47.032,77.084,58.136
		c0,0-17.641-30.698-69.246-55.527C343.946,307.052,325.654,297.912,317.165,257.416z"/>
	<path d="M711.613,733.434c0,0,22.156,17.221,26.525,31.176c0,0,5.365,31.922,14.92,44.365c0,0-2.613-11.971-1.438-16.864
		c1.176-4.862,0.346-2.142,0.346-2.142s4.768,7.34,14.891,12.59c14.186,7.382,9.859,3.875,9.859,3.875s6.479,7.413,12.748,6.342
		c6.279-1.061,12.873,1.555,12.873,1.555l-1.196-7.855c0,0,10.417-10.689,11.025-14.848c0,0,3.507-8.316,7.204-8.273
		c3.686,0.041,7.832-0.967,8.578-4.684c0.767-3.717-3.213-9.766-3.213-9.766s2.951-3.15,0.693-7.971
		c-2.258-4.819-9.084-6.688-9.084-6.688s-4.305-6.679,0.189-10.112c4.494-3.423,10.018-6.824,6.195-11.203
		c-3.801-4.39-10.375-6.207-11.677-9.557c-1.292-3.338-6.783-13.01-8.495-12.547c-1.711,0.461-4.011-1.355-7.57-4.043
		c-3.57-2.678-9.041-4.085-10.627-3.959c-1.574,0.137-6.993-7.361-15.414-6.646c0,0-1.765-1.975-6.07-2.668
		c-4.305-0.693-10.721-1.218-18.438,1.564c-7.729,2.783-14.28,0.684-14.28,0.684s-11.236,1.91-12.423,12.895
		c-0.073,0.619-0.104,1.281-0.104,1.974c0.01,12.727-15.006-0.776-6.563,19.972"/>
	<path fill="#FFFFFF" d="M738.727,725.348c0,0,4.547-4.18,5.187-9.492c0.651-5.334,3.906-10.658,7.141-9.524
		c3.245,1.145,11.677-1.134,16.864-1.9c5.188-0.756,10.71,3.045,12.327,3.812c1.628,0.767,5.188,2.279,8.106,3.424
		c2.92,1.134,6.814,3.045,8.758,4.567c1.953,1.512,5.838,3.423,6.814,6.847c0.977,3.423,1.943,6.846,5.198,9.114
		c3.233,2.289,5.187,9.513,5.187,9.513s-8.116,9.514-5.187,12.938c2.919,3.423,7.13,4.945,7.13,7.225
		c0,2.289-3.245,9.891-3.245,9.891s-5.838,17.494-11.025,20.918c-5.188,3.423-15.583,1.512-17.515-3.045
		c-1.953-4.568-6.164-29.276-10.711-33.466c0,0,3.256,6.079,2.92,15.204c0,0-1.617-12.926-11.678-19.395
		c-10.049-6.468-13.293-6.468-16.538-10.27C745.215,737.906,740.344,734.105,738.727,725.348z"/>
</g>
</svg>
